<svg xmlns="http://www.w3.org/2000/svg" xmlns:xlink="http://www.w3.org/1999/xlink" width="47.2421875" height="48" viewBox="0 0 47.2421875 48" fill="none">
<path d="M22.5675 4.17515C33.2825 4.17515 41.9774 13.0572 41.9774 24.0052C41.9774 34.9532 33.2825 43.8252 22.5675 43.8252C11.8525 43.8252 3.16758 34.9532 3.16758 24.0052C3.16758 13.0572 11.8525 4.17515 22.5675 4.17515ZM22.5682 14.0875C27.9257 14.0875 32.2682 18.5235 32.2682 23.9975C32.2682 29.4715 27.9257 33.9175 22.5682 33.9175C17.2107 33.9175 12.8682 29.4715 12.8682 23.9975C12.8682 18.5235 17.2107 14.0875 22.5682 14.0875Z" fill-rule="evenodd"  fill="url(#linear_fill_58_3)" >
</path>
<path d="M47.0955 25.9488C47.5656 26.9904 46.8257 28.176 45.7065 28.176L42.4852 28.176L42.4852 37.5648C42.4852 39.2928 41.1149 40.6944 39.4214 40.6944L33.294 40.6944C32.4499 40.6944 31.7634 41.3952 31.7634 42.2592L31.7634 45.3936C31.7634 46.8336 30.6202 48 29.2099 48L23.0824 48C21.672 48 20.5288 46.8336 20.5288 45.3936L20.5288 2.6064C20.5288 1.1664 21.672 0 23.0824 0L23.5899 0C30.7537 0 37.2632 4.2528 40.2735 10.8912L47.0955 25.9488Z"   fill="#1B70F0" >
</path>
<ellipse cx="22.571533203125" cy="24.0008544921875" rx="5.616943359375" ry="5.7391357421875"   fill="#1B70F0" >
</ellipse>
<ellipse cx="38.400146484375" cy="18.26171875" rx="1.531982421875" ry="1.565185546875"   fill="#FFFFFF" >
</ellipse>
<path d="M5.51415 15.9135C4.92455 14.8703 3.45053 14.8703 2.86093 15.9135L0.207702 20.6091C-0.381904 21.6523 0.355104 22.9569 1.53432 22.9569L6.84077 22.9569C8.01998 22.9569 8.75699 21.6523 8.16738 20.6091L5.51415 15.9135Z"   fill="url(#linear_fill_58_9)" >
</path>
<path d="M5.51415 32.0869C4.92455 33.1302 3.45053 33.1302 2.86093 32.0869L0.207702 27.3913C-0.381904 26.3481 0.355104 25.0435 1.53432 25.0435L6.84077 25.0435C8.01998 25.0435 8.75699 26.3481 8.16738 27.3913L5.51415 32.0869Z"   fill="url(#linear_fill_58_10)" >
</path>
<path d="M25.0818 23.478C25.3777 23.478 25.6369 23.6972 25.6369 23.9996C25.6369 25.7282 24.265 27.13 22.5731 27.13C22.0743 27.13 21.6031 27.0079 21.187 26.7919C20.4854 26.4282 20.9033 25.5648 21.6901 25.5648L22.0627 25.5648C22.3445 25.5648 22.5731 25.3313 22.5731 25.0433C22.5731 24.7546 22.3445 24.5211 22.0627 24.5211L20.0644 24.5211C19.7685 24.5211 19.5093 24.302 19.5093 23.9996C19.5093 22.2709 20.8813 20.8691 22.5731 20.8691C23.0719 20.8691 23.5431 20.9912 23.9592 21.2072C24.6608 21.571 24.2429 22.4344 23.4561 22.4344L23.0835 22.4344C22.8017 22.4344 22.5731 22.6679 22.5731 22.9559C22.5731 23.2445 22.8017 23.478 23.0835 23.478L25.0818 23.478Z"   fill="url(#linear_fill_58_11)" >
</path>
<path    stroke="url(#linear_border_58_12_0)" stroke-width="2"    d="M27.1675 9.39111C27.1675 10.2213 27.4904 11.0177 28.0652 11.6046C28.6393 12.1916 29.4188 12.5215 30.2313 12.5215C31.0438 12.5215 31.8233 12.1916 32.3974 11.6046C32.9722 11.0177 33.2951 10.2213 33.2951 9.39111">
</path>
<path    stroke="url(#linear_border_58_13_0)" stroke-width="2"    d="M30.2307 8.34894C30.2307 7.51875 29.9078 6.72237 29.333 6.13541C28.7588 5.54845 27.9794 5.21851 27.1669 5.21851C26.3543 5.21851 25.5749 5.54845 25.0007 6.13541C24.426 6.72237 24.103 7.51875 24.103 8.34894">
</path>
<path d="M24.9984 41.1533C24.9984 41.6935 24.5696 42.1316 24.0409 42.1316C23.5122 42.1316 23.0835 41.6935 23.0835 41.1533C23.0835 40.6131 23.5122 40.175 24.0409 40.175C24.5696 40.175 24.9984 40.6131 24.9984 41.1533Z"   fill="url(#linear_fill_58_14)" >
</path>
<path d="M24.9984 44.4126C24.9984 44.9532 24.5696 45.3908 24.0409 45.3908C23.5122 45.3908 23.0835 44.9532 23.0835 44.4126C23.0835 43.872 23.5122 43.4343 24.0409 43.4343C24.5696 43.4343 24.9984 43.872 24.9984 44.4126Z"   fill="url(#linear_fill_58_15)" >
</path>
<path d="M27.2299 45.3908C27.7586 45.3908 28.1874 44.9532 28.1874 44.4126C28.1874 43.872 27.7586 43.4343 27.2299 43.4343C26.7012 43.4343 26.2725 43.872 26.2725 44.4126C26.2725 44.9532 26.7012 45.3908 27.2299 45.3908Z"   fill="url(#linear_fill_58_16)" >
</path>
<defs>
<linearGradient id="linear_fill_58_3" x1="32.0185546875" y1="24.001220703125" x2="3.16748046875" y2="24.001220703125" gradientUnits="userSpaceOnUse">
<stop offset="0" stop-color="#96C6FF"  />
<stop offset="1" stop-color="#F3F8FF"  />
</linearGradient>
<linearGradient id="linear_fill_58_9" x1="0.1025390625" y1="23.2177734375" x2="13.36669921875" y2="24.884033203125" gradientUnits="userSpaceOnUse">
<stop offset="0" stop-color="#ECF4FF"  />
<stop offset="1" stop-color="#8EC2FF"  />
</linearGradient>
<linearGradient id="linear_fill_58_10" x1="0.1025390625" y1="23.21728515625" x2="13.36669921875" y2="24.883544921875" gradientUnits="userSpaceOnUse">
<stop offset="0" stop-color="#ECF4FF"  />
<stop offset="1" stop-color="#8EC2FF"  />
</linearGradient>
<linearGradient id="linear_fill_58_11" x1="27.42431640625" y1="22.434326171875" x2="21.673828125" y2="27.483642578125" gradientUnits="userSpaceOnUse">
<stop offset="0" stop-color="#8EC2FF"  />
<stop offset="1" stop-color="#DBEAFF"  />
</linearGradient>
<linearGradient id="linear_border_58_12_0" x1="30.2314453125" y1="12.521484375" x2="30.2314453125" y2="9.39111328125" gradientUnits="userSpaceOnUse">
<stop offset="0" stop-color="#BCDBFF"  />
<stop offset="1" stop-color="#639EF8"  />
</linearGradient>
<linearGradient id="linear_border_58_13_0" x1="27.1669921875" y1="5.218505859375" x2="27.1669921875" y2="8.348876953125" gradientUnits="userSpaceOnUse">
<stop offset="0" stop-color="#BCDBFF"  />
<stop offset="1" stop-color="#639EF8"  />
</linearGradient>
<linearGradient id="linear_fill_58_14" x1="28.18994140625" y1="40.175048828125" x2="26.65234375" y2="46.32421875" gradientUnits="userSpaceOnUse">
<stop offset="0" stop-color="#639EF8"  />
<stop offset="1" stop-color="#B6D7FF"  />
</linearGradient>
<linearGradient id="linear_fill_58_15" x1="28.18994140625" y1="40.17333984375" x2="26.65234375" y2="46.32275390625" gradientUnits="userSpaceOnUse">
<stop offset="0" stop-color="#639EF8"  />
<stop offset="1" stop-color="#B6D7FF"  />
</linearGradient>
<linearGradient id="linear_fill_58_16" x1="28.1875" y1="40.17333984375" x2="26.6494140625" y2="46.32275390625" gradientUnits="userSpaceOnUse">
<stop offset="0" stop-color="#639EF8"  />
<stop offset="1" stop-color="#B6D7FF"  />
</linearGradient>
</defs>
</svg>
