<svg t="1753174929467" class="icon" viewBox="0 0 1024 1024" version="1.1" xmlns="http://www.w3.org/2000/svg" p-id="6698" width="200" height="200"><path d="M925.013333 914.773333c0-201.386667-112.64-372.053333-269.653333-440.32 95.573333-64.853333 136.533333-180.906667 102.4-290.133333C727.04 75.093333 624.64 0 512 0c-112.64 0-215.04 75.093333-249.173333 184.32s6.826667 225.28 102.4 290.133333c-157.013333 68.266667-269.653333 238.933333-269.653334 440.32v3.413334C98.986667 976.213333 283.306667 1024 512 1024c228.693333 0 413.013333-47.786667 413.013333-105.813333v-3.413334zM440.32 515.413333c3.413333-3.413333 10.24-6.826667 17.066667-6.826666h102.4c6.826667 0 10.24 3.413333 13.653333 6.826666 3.413333 6.826667 3.413333 10.24 0 17.066667l-27.306667 54.613333c-3.413333 6.826667-10.24 10.24-17.066666 10.24H477.866667c-6.826667 0-13.653333-3.413333-17.066667-10.24l-27.306667-54.613333c3.413333-3.413333 3.413333-10.24 6.826667-17.066667z m180.906667 327.68l-88.746667 122.88c-3.413333 3.413333-6.826667 6.826667-13.653333 6.826667s-10.24-3.413333-13.653334-6.826667L409.6 843.093333c-3.413333-3.413333-3.413333-10.24-3.413333-17.066666l58.026666-191.146667c3.413333-6.826667 10.24-13.653333 17.066667-13.653333h58.026667c6.826667 0 13.653333 3.413333 17.066666 10.24l68.266667 191.146666c0 6.826667 0 13.653333-3.413333 20.48z" p-id="6699" fill="#E2F7FA"></path></svg>