<svg t="1753174848026" class="icon" viewBox="0 0 1024 1024" version="1.1" xmlns="http://www.w3.org/2000/svg" p-id="3846" width="200" height="200"><path d="M954.880105 331.01809L533.391539 9.215263a30.132447 30.132447 0 0 0-42.858286 0l-421.488567 321.802827a30.498132 30.498132 0 0 0 0 42.931423h885.835419a30.278721 30.278721 0 0 0 0-42.931423z m-442.917709-39.128298a68.383101 68.383101 0 1 1 69.041334-68.383101 68.675649 68.675649 0 0 1-69.041334 68.383101z m-298.472122 145.542642h62.312729a24.062075 24.062075 0 0 1 24.062075 24.062075v307.979933a24.062075 24.062075 0 0 1-24.062075 24.062075h-62.312729a24.062075 24.062075 0 0 1-24.062075-24.062075V461.494509a24.062075 24.062075 0 0 1 24.062075-24.062075z m267.315757 0h62.31273a24.135212 24.135212 0 0 1 24.135212 24.135212v307.614248a24.135212 24.135212 0 0 1-24.135212 24.135212h-62.31273a24.062075 24.062075 0 0 1-24.135212-24.135212v-307.175426a24.281486 24.281486 0 0 1 24.135212-24.281486z m267.681443 0h61.947044a24.062075 24.062075 0 0 1 24.062075 24.062075v307.979933a24.062075 24.062075 0 0 1-24.062075 24.062075h-61.80077a24.062075 24.062075 0 0 1-24.062075-24.062075V461.494509a24.062075 24.062075 0 0 1 24.062075-24.062075zM53.832189 969.284743h916.260414a11.994469 11.994469 0 0 1 11.921332 11.921332v30.79068a11.994469 11.994469 0 0 1-11.921332 11.921332H53.832189A11.994469 11.994469 0 0 1 41.910857 1011.996755v-30.79068a11.921332 11.921332 0 0 1 11.921332-11.921332z m50.757082-122.065663h814.892523a11.994469 11.994469 0 0 1 11.921332 11.921332v30.790679a11.994469 11.994469 0 0 1-11.921332 11.921332H104.589271a11.994469 11.994469 0 0 1-11.921332-11.921332v-30.790679a11.921332 11.921332 0 0 1 11.921332-11.921332z" fill="#E2F7FA" p-id="3847"></path></svg>