<svg t="1753175455770" class="icon" viewBox="0 0 1024 1024" version="1.1" xmlns="http://www.w3.org/2000/svg" p-id="28282" width="200" height="200"><path d="M697.967304 523.798261a209.563826 209.563826 0 0 1 185.210435 307.645217l81.430261 81.474783c18.966261 18.966261 20.346435 48.929391 4.051478 69.453913l-4.051478 4.585739c-20.48 20.48-53.648696 20.48-74.084174 0l-78.09113-78.09113a209.519304 209.519304 0 1 1-114.42087-385.068522zM750.32487 0A117.849043 117.849043 0 0 1 868.173913 117.849043v399.493566a275.010783 275.010783 0 0 0-386.181565 386.31513H140.109913A117.849043 117.849043 0 0 1 22.26087 785.719652V117.849043A117.849043 117.849043 0 0 1 140.109913 0h610.214957z m-52.357566 628.646957a104.759652 104.759652 0 1 0 0 209.474782 104.759652 104.759652 0 0 0 0-209.519304zM445.350957 387.561739H209.964522a35.350261 35.350261 0 0 0 0 70.745044h235.386435a35.350261 35.350261 0 0 0 0-70.745044z m233.293913-176.751304H209.92a35.350261 35.350261 0 0 0 0 70.700522h468.635826a35.350261 35.350261 0 0 0 0-70.745044z" p-id="28283" fill="#E2F7FA"></path></svg>