<svg xmlns="http://www.w3.org/2000/svg" xmlns:xlink="http://www.w3.org/1999/xlink" width="24" height="24" viewBox="0 0 24 24" fill="none">
<path d="M23.629 21.8705L19.0827 17.3812C20.6167 15.5438 21.5365 13.1909 21.5365 10.6267C21.5365 4.75804 16.7151 0 10.7683 0C4.8214 0 0 4.75804 0 10.6295C0 16.5009 4.8214 21.2562 10.7683 21.2562C13.2053 21.2562 15.4535 20.4582 17.257 19.1089L21.8422 23.6339C22.3368 24.122 23.1371 24.122 23.629 23.6339C24.1237 23.1457 24.1237 22.3559 23.629 21.8705ZM2.03138 10.6295C2.03138 5.86871 5.94407 2.00743 10.7683 2.00743C15.5924 2.00743 19.5051 5.86871 19.5051 10.6295C19.5051 15.3903 15.5924 19.2516 10.7683 19.2516C5.94407 19.2516 2.03138 15.3903 2.03138 10.6295Z"   fill="#FFFFFF" >
</path>
</svg>
