<svg xmlns="http://www.w3.org/2000/svg" xmlns:xlink="http://www.w3.org/1999/xlink" width="26" height="26" viewBox="0 0 26 26" fill="none">
<g opacity="0.4">
<path d="M0 13C0 13.2127 0.00521967 13.4254 0.015659 13.6379C0.0260985 13.8504 0.0417449 14.0625 0.0625985 14.2742C0.0834521 14.4859 0.109488 14.697 0.140705 14.9075C0.171923 15.1179 0.208285 15.3275 0.249791 15.5362C0.291296 15.7448 0.337898 15.9524 0.389593 16.1587C0.441289 16.3651 0.498016 16.5701 0.559774 16.7737C0.621534 16.9773 0.68825 17.1792 0.759925 17.3795C0.831601 17.5799 0.908148 17.7783 0.989566 17.9749C1.07098 18.1714 1.15717 18.3659 1.24814 18.5582C1.3391 18.7505 1.43473 18.9405 1.53502 19.1281C1.63531 19.3158 1.74015 19.5008 1.84953 19.6833C1.9589 19.8658 2.07269 20.0455 2.19089 20.2224C2.30909 20.3993 2.43156 20.5732 2.55831 20.7441C2.68503 20.9149 2.81589 21.0826 2.95087 21.2471C3.08582 21.4115 3.22476 21.5726 3.36763 21.7302C3.5105 21.8879 3.65716 22.0419 3.8076 22.1924C3.95804 22.3428 4.11208 22.4895 4.26973 22.6323C4.42738 22.7752 4.58844 22.9142 4.75289 23.0491C4.91735 23.1841 5.08503 23.3149 5.25591 23.4417C5.42678 23.5684 5.60068 23.6909 5.77758 23.8091C5.95448 23.9273 6.13417 24.0411 6.31665 24.1504C6.49913 24.2598 6.6842 24.3647 6.87184 24.465C7.05948 24.5653 7.24945 24.6609 7.44178 24.7518C7.63412 24.8428 7.82856 24.929 8.02511 25.0104C8.22165 25.0918 8.42011 25.1684 8.62041 25.24C8.82075 25.3117 9.0227 25.3784 9.22628 25.4401C9.42989 25.5018 9.63487 25.5587 9.84124 25.6105C10.0476 25.662 10.2551 25.7087 10.4638 25.7501C10.6725 25.7915 10.882 25.8281 11.0925 25.8593C11.303 25.8905 11.514 25.9164 11.7258 25.9373C11.9375 25.9583 12.1496 25.9738 12.3621 25.9842C12.5746 25.9946 12.7872 26 13 26C13.2127 26 13.4254 25.9946 13.6379 25.9842C13.8504 25.9738 14.0625 25.9583 14.2742 25.9373C14.4859 25.9164 14.697 25.8905 14.9075 25.8593C15.1179 25.8281 15.3275 25.7915 15.5362 25.7501C15.7448 25.7087 15.9524 25.662 16.1587 25.6105C16.3651 25.5587 16.5701 25.5018 16.7737 25.4401C16.9773 25.3784 17.1792 25.3117 17.3795 25.24C17.5799 25.1684 17.7783 25.0918 17.9749 25.0104C18.1714 24.929 18.3659 24.8428 18.5582 24.7518C18.7505 24.6609 18.9405 24.5653 19.1281 24.465C19.3158 24.3647 19.5008 24.2598 19.6833 24.1504C19.8658 24.0411 20.0455 23.9273 20.2224 23.8091C20.3993 23.6909 20.5732 23.5684 20.7441 23.4417C20.9149 23.3149 21.0826 23.1841 21.2471 23.0491C21.4115 22.9142 21.5726 22.7752 21.7302 22.6323C21.8879 22.4895 22.0419 22.3428 22.1924 22.1924C22.3428 22.0419 22.4895 21.8879 22.6323 21.7302C22.7752 21.5726 22.9142 21.4115 23.0491 21.2471C23.1841 21.0826 23.3149 20.9149 23.4417 20.7441C23.5684 20.5732 23.6909 20.3993 23.8091 20.2224C23.9273 20.0455 24.0411 19.8658 24.1504 19.6833C24.2598 19.5008 24.3647 19.3158 24.465 19.1281C24.5653 18.9405 24.6609 18.7505 24.7518 18.5582C24.8428 18.3659 24.929 18.1714 25.0104 17.9749C25.0918 17.7783 25.1684 17.5799 25.24 17.3796C25.3117 17.1792 25.3784 16.9773 25.4401 16.7737C25.5018 16.5701 25.5587 16.3651 25.6105 16.1587C25.662 15.9524 25.7087 15.7448 25.7501 15.5362C25.7915 15.3275 25.8281 15.1179 25.8593 14.9075C25.8905 14.697 25.9164 14.4859 25.9373 14.2742C25.9583 14.0625 25.9738 13.8504 25.9842 13.6379C25.9946 13.4254 26 13.2127 26 13C26 12.7872 25.9946 12.5746 25.9842 12.3621C25.9738 12.1496 25.9583 11.9375 25.9373 11.7258C25.9164 11.514 25.8905 11.303 25.8593 11.0925C25.8281 10.882 25.7915 10.6725 25.7501 10.4638C25.7087 10.2551 25.662 10.0476 25.6105 9.84124C25.5587 9.63487 25.5018 9.42989 25.4401 9.22628C25.3784 9.0227 25.3117 8.82074 25.24 8.62041C25.1684 8.42011 25.0918 8.22165 25.0104 8.02511C24.929 7.82856 24.8428 7.63412 24.7518 7.44178C24.6609 7.24945 24.5653 7.05947 24.465 6.87184C24.3647 6.6842 24.2598 6.49913 24.1504 6.31665C24.0411 6.13417 23.9273 5.95448 23.8091 5.77758C23.6909 5.60068 23.5684 5.42678 23.4417 5.2559C23.3149 5.08503 23.1841 4.91735 23.0491 4.75289C22.9142 4.58844 22.7752 4.42738 22.6323 4.26973C22.4895 4.11208 22.3428 3.95804 22.1924 3.8076C22.0419 3.65716 21.8879 3.5105 21.7302 3.36763C21.5726 3.22476 21.4115 3.08582 21.2471 2.95087C21.0826 2.81589 20.9149 2.68503 20.7441 2.55831C20.5732 2.43156 20.3993 2.30909 20.2224 2.19089C20.0455 2.07269 19.8658 1.9589 19.6833 1.84952C19.5008 1.74015 19.3158 1.63531 19.1281 1.53502C18.9405 1.43473 18.7505 1.3391 18.5582 1.24814C18.3659 1.15717 18.1714 1.07098 17.9749 0.989566C17.7783 0.908148 17.5799 0.8316 17.3796 0.759925C17.1792 0.68825 16.9773 0.621534 16.7737 0.559774C16.5701 0.498016 16.3651 0.441289 16.1587 0.389593C15.9524 0.337898 15.7448 0.291296 15.5362 0.249791C15.3275 0.208285 15.1179 0.171923 14.9075 0.140705C14.697 0.109488 14.4859 0.083452 14.2742 0.0625985C14.0625 0.0417449 13.8504 0.0260985 13.6379 0.015659C13.4254 0.00521967 13.2127 0 13 0C12.7872 0 12.5746 0.00521967 12.3621 0.015659C12.1496 0.0260985 11.9375 0.0417449 11.7258 0.0625985C11.514 0.083452 11.303 0.109488 11.0925 0.140705C10.882 0.171923 10.6725 0.208285 10.4638 0.249791C10.2551 0.291296 10.0476 0.337898 9.84124 0.389593C9.63487 0.441289 9.42989 0.498016 9.22628 0.559774C9.0227 0.621534 8.82075 0.68825 8.62041 0.759925C8.42011 0.8316 8.22165 0.908148 8.02511 0.989566C7.82856 1.07098 7.63412 1.15717 7.44178 1.24814C7.24945 1.3391 7.05948 1.43473 6.87184 1.53502C6.6842 1.63531 6.49913 1.74015 6.31665 1.84952C6.13417 1.9589 5.95448 2.07269 5.77758 2.19089C5.60068 2.30909 5.42678 2.43156 5.25591 2.55831C5.08503 2.68503 4.91735 2.81589 4.75289 2.95087C4.58844 3.08582 4.42738 3.22476 4.26973 3.36763C4.11208 3.5105 3.95804 3.65716 3.8076 3.8076C3.65716 3.95804 3.5105 4.11208 3.36763 4.26973C3.22476 4.42738 3.08582 4.58844 2.95087 4.75289C2.81589 4.91735 2.68503 5.08503 2.55831 5.2559C2.43156 5.42678 2.30909 5.60068 2.19089 5.77758C2.07269 5.95448 1.9589 6.13417 1.84953 6.31665C1.74015 6.49913 1.63531 6.6842 1.53502 6.87184C1.43473 7.05947 1.3391 7.24945 1.24814 7.44178C1.15717 7.63412 1.07098 7.82856 0.989566 8.02511C0.908148 8.22165 0.831601 8.42011 0.759925 8.62041C0.68825 8.82074 0.621534 9.0227 0.559774 9.22628C0.498016 9.42989 0.441289 9.63487 0.389593 9.84124C0.337898 10.0476 0.291296 10.2551 0.249791 10.4638C0.208285 10.6725 0.171923 10.882 0.140705 11.0925C0.109488 11.303 0.0834521 11.514 0.0625985 11.7258C0.0417449 11.9375 0.0260985 12.1496 0.015659 12.3621C0.00521967 12.5746 0 12.7872 0 13Z"   fill="url(#linear_fill_gIsuhIhF7QqNVD9b61mnq)" >
</path>
</g>
<path d="M5.57141 12.9998C5.57136 13.1214 5.5743 13.243 5.58022 13.3644C5.58615 13.4859 5.59505 13.6071 5.60693 13.7282C5.61882 13.8492 5.63366 13.9698 5.65147 14.0901C5.66928 14.2104 5.69002 14.3302 5.7137 14.4495C5.73738 14.5687 5.76398 14.6873 5.7935 14.8053C5.82301 14.9233 5.8554 15.0405 5.89067 15.1568C5.92593 15.2732 5.96404 15.3886 6.00498 15.5031C6.04591 15.6176 6.08963 15.7311 6.13612 15.8434C6.18264 15.9558 6.23188 16.0669 6.28385 16.1769C6.3358 16.2868 6.39042 16.3954 6.44772 16.5027C6.50502 16.6099 6.56491 16.7157 6.62741 16.82C6.6899 16.9244 6.75492 17.0271 6.82246 17.1282C6.88998 17.2293 6.95996 17.3287 7.03239 17.4264C7.1048 17.5241 7.17957 17.6199 7.25669 17.7139C7.33381 17.8079 7.41319 17.9 7.49485 17.9901C7.57649 18.0802 7.6603 18.1683 7.74627 18.2543C7.83224 18.3403 7.92027 18.4241 8.01036 18.5058C8.10044 18.5875 8.19248 18.6669 8.28645 18.7441C8.38045 18.8212 8.47627 18.896 8.57393 18.9685C8.6716 19.0409 8.77098 19.1109 8.87206 19.1785C8.97317 19.2461 9.07587 19.3111 9.18015 19.3737C9.28446 19.4362 9.39023 19.4961 9.49746 19.5534C9.60468 19.6108 9.71328 19.6654 9.82319 19.7174C9.93311 19.7695 10.0442 19.8187 10.1566 19.8653C10.2689 19.9118 10.3823 19.9556 10.4968 19.9966C10.6113 20.0375 10.7267 20.0757 10.8431 20.111C10.9595 20.1463 11.0766 20.1787 11.1946 20.2083C11.3125 20.2378 11.4312 20.2645 11.5504 20.2882C11.6697 20.3119 11.7894 20.3327 11.9097 20.3506C12.03 20.3684 12.1506 20.3833 12.2717 20.3952C12.3927 20.4071 12.5139 20.4161 12.6354 20.422C12.7568 20.428 12.8784 20.431 13 20.431C13.1216 20.431 13.2431 20.428 13.3645 20.422C13.486 20.4161 13.6072 20.4071 13.7282 20.3952C13.8493 20.3833 13.9699 20.3684 14.0902 20.3505C14.2105 20.3327 14.3303 20.3119 14.4495 20.2882C14.5688 20.2645 14.6874 20.2378 14.8053 20.2083C14.9233 20.1787 15.0405 20.1463 15.1568 20.111C15.2732 20.0757 15.3886 20.0375 15.5031 19.9966C15.6176 19.9556 15.731 19.9118 15.8434 19.8653C15.9557 19.8187 16.0668 19.7695 16.1767 19.7174C16.2867 19.6654 16.3952 19.6108 16.5025 19.5534C16.6097 19.4961 16.7155 19.4362 16.8198 19.3737C16.9241 19.3111 17.0268 19.2461 17.1278 19.1785C17.2289 19.1109 17.3283 19.0409 17.426 18.9685C17.5237 18.896 17.6195 18.8212 17.7135 18.7441C17.8074 18.6669 17.8995 18.5875 17.9896 18.5058C18.0797 18.4241 18.1677 18.3403 18.2537 18.2543C18.3396 18.1683 18.4234 18.0802 18.5051 17.9901C18.5867 17.9 18.6661 17.8079 18.7432 17.7139C18.8204 17.6199 18.8951 17.5241 18.9675 17.4264C19.04 17.3287 19.11 17.2293 19.1775 17.1282C19.245 17.0271 19.31 16.9244 19.3725 16.82C19.435 16.7157 19.4949 16.6099 19.5522 16.5027C19.6095 16.3954 19.6641 16.2868 19.7161 16.1769C19.7681 16.0669 19.8173 15.9558 19.8638 15.8434C19.9103 15.7311 19.954 15.6176 19.995 15.5031C20.0359 15.3886 20.074 15.2732 20.1093 15.1568C20.1445 15.0405 20.1769 14.9233 20.2064 14.8053C20.236 14.6873 20.2625 14.5687 20.2862 14.4495C20.3099 14.3302 20.3307 14.2104 20.3485 14.0901C20.3663 13.9698 20.3811 13.8492 20.393 13.7282C20.4049 13.6071 20.4138 13.4859 20.4197 13.3644C20.4256 13.243 20.4286 13.1214 20.4285 12.9998C20.4285 12.8783 20.4255 12.7568 20.4196 12.6353C20.4136 12.5139 20.4047 12.3927 20.3928 12.2717C20.3809 12.1507 20.366 12.0301 20.3481 11.9099C20.3303 11.7896 20.3095 11.6698 20.2858 11.5506C20.2621 11.4314 20.2354 11.3128 20.2059 11.1949C20.1764 11.0769 20.1439 10.9598 20.1086 10.8434C20.0734 10.7271 20.0352 10.6117 19.9943 10.4972C19.9533 10.3828 19.9096 10.2694 19.8631 10.1571C19.8165 10.0447 19.7673 9.93363 19.7153 9.82374C19.6633 9.71382 19.6087 9.60527 19.5514 9.49805C19.4941 9.39083 19.4341 9.28507 19.3717 9.18079C19.3091 9.07652 19.2441 8.97384 19.1766 8.87276C19.109 8.77168 19.0391 8.6723 18.9666 8.57464C18.8942 8.47702 18.8194 8.38119 18.7423 8.28722C18.6652 8.19325 18.5858 8.10121 18.5042 8.01112C18.4225 7.92104 18.3387 7.83302 18.2527 7.74706C18.1668 7.66109 18.0788 7.57728 17.9887 7.49564C17.8986 7.41401 17.8066 7.33462 17.7126 7.25748C17.6186 7.18036 17.5228 7.10559 17.4251 7.03315C17.3275 6.96074 17.2281 6.89076 17.1271 6.82322C17.026 6.75567 16.9233 6.69064 16.819 6.62815C16.7147 6.56565 16.609 6.50575 16.5018 6.44843C16.3945 6.39112 16.286 6.33648 16.1761 6.28451C16.0662 6.23253 15.9551 6.18327 15.8427 6.13674C15.7304 6.09022 15.6171 6.04648 15.5026 6.00552C15.3881 5.96456 15.2727 5.92644 15.1564 5.89116C15.04 5.85587 14.9229 5.82345 14.805 5.79391C14.687 5.76436 14.5684 5.73772 14.4492 5.71401C14.33 5.69029 14.2102 5.66952 14.09 5.65168C13.9697 5.63383 13.8491 5.61896 13.7281 5.60704C13.6071 5.59512 13.4859 5.58618 13.3645 5.58023C13.243 5.57427 13.1215 5.57129 13 5.57129C12.8784 5.57129 12.7569 5.57427 12.6355 5.58023C12.514 5.58618 12.3928 5.59512 12.2718 5.60704C12.1509 5.61896 12.0302 5.63383 11.91 5.65168C11.7897 5.66952 11.67 5.69029 11.5507 5.71401C11.4315 5.73772 11.3129 5.76436 11.195 5.79391C11.077 5.82345 10.9599 5.85587 10.8436 5.89116C10.7272 5.92644 10.6118 5.96456 10.4974 6.00552C10.3829 6.04648 10.2695 6.09022 10.1572 6.13674C10.0449 6.18327 9.93374 6.23253 9.82383 6.28451C9.71394 6.33648 9.60539 6.39112 9.49817 6.44843C9.39094 6.50575 9.28519 6.56565 9.18091 6.62815C9.07663 6.69064 8.97396 6.75567 8.87288 6.82322C8.7718 6.89076 8.67242 6.96074 8.57476 7.03315C8.47714 7.10559 8.38131 7.18036 8.28734 7.25748C8.19337 7.33462 8.10133 7.41401 8.01124 7.49564C7.92116 7.57728 7.83314 7.66109 7.74718 7.74706C7.66121 7.83302 7.57741 7.92104 7.49576 8.01112C7.41413 8.10121 7.33474 8.19325 7.2576 8.28722C7.18048 8.38119 7.10571 8.47702 7.03328 8.57464C6.96086 8.6723 6.89088 8.77168 6.82335 8.87276C6.75579 8.97384 6.69077 9.07652 6.62827 9.18079C6.56578 9.28507 6.50587 9.39083 6.44855 9.49805C6.39124 9.60527 6.3366 9.71382 6.28463 9.82374C6.23265 9.93363 6.18339 10.0447 6.13686 10.1571C6.09034 10.2694 6.04661 10.3828 6.00564 10.4972C5.96468 10.6117 5.92656 10.7271 5.89128 10.8434C5.85599 10.9598 5.82357 11.0769 5.79404 11.1949C5.76448 11.3128 5.73785 11.4314 5.71413 11.5506C5.69042 11.6698 5.66964 11.7896 5.6518 11.9099C5.63396 12.0301 5.61908 12.1507 5.60716 12.2717C5.59524 12.3927 5.58631 12.5139 5.58035 12.6353C5.57439 12.7568 5.57141 12.8783 5.57141 12.9998Z"   fill="#1B70F0" >
</path>
<defs>
<linearGradient id="linear_fill_gIsuhIhF7QqNVD9b61mnq" x1="0.3179931640625" y1="-6.06689453125" x2="41.4967041015625" y2="-0.53076171875" gradientUnits="userSpaceOnUse">
<stop offset="0" stop-color="#ECF4FF"  />
<stop offset="1" stop-color="#8EC2FF"  />
</linearGradient>
</defs>
</svg>
