<svg xmlns="http://www.w3.org/2000/svg" xmlns:xlink="http://www.w3.org/1999/xlink" width="23" height="34" viewBox="0 0 23 34" fill="none">
<path d="M22.6443 15.726L11.1389 0.48141C10.6523 -0.16047 9.86544 -0.16047 9.37878 0.48141C8.89212 1.12597 8.89212 2.17341 9.37878 2.81802L20.0853 16.9989L9.37878 31.1852C8.89212 31.8299 8.89212 32.872 9.37878 33.5166C9.86544 34.1611 10.6523 34.1611 11.1389 33.5166L22.6443 18.2774C22.912 17.9255 23.0194 17.4582 22.9972 16.9989C23.0194 16.5424 22.912 16.0777 22.6443 15.726ZM13.9817 16.9989C14.0061 16.5424 13.8967 16.0777 13.633 15.726L2.12756 0.48141C1.64093 -0.16047 0.854207 -0.16047 0.363449 0.48141C-0.123182 1.12597 -0.119112 2.17341 0.363449 2.81802L11.074 16.9989L0.363449 31.1852C-0.119112 31.8299 -0.123182 32.872 0.363449 33.5166C0.854207 34.1611 1.6409 34.1611 2.12756 33.5166L13.633 18.2774C13.8967 17.9255 14.0061 17.4582 13.9817 16.9989Z"   fill="#FFFFFF" fill-opacity="0.5">
</path>
</svg>
